# Blender v3.0.0 OBJ File: 'default_objects.blend'
# www.blender.org
mtllib 0001_default_g_0.mtl
o 0001_default_g_0_Cube.040
v 1.000000 0.000000 -1.000000
v 1.000000 0.000000 1.000000
v -1.000000 0.000000 1.000000
v 0.000000 0.000000 -1.000000
v 0.000000 0.000000 1.000000
v -1.000000 0.000000 0.000000
v 1.000000 0.000000 0.000000
v 0.000000 0.000000 0.000000
vt 0.250000 0.490459
vt 0.250000 0.250000
vt 0.490459 0.250000
vt 0.490459 0.490459
vt 0.009541 0.490459
vt 0.009541 0.250000
vt 0.250000 0.009541
vt 0.009541 0.009541
vn 0.0000 1.0000 0.0000
usemtl Backface.009
s off
f 5/1/1 8/2/1 6/3/1 3/4/1
f 2/5/1 7/6/1 8/2/1 5/1/1
f 4/7/1 8/2/1 7/6/1 1/8/1
f 8/2/1 4/7/1 6/3/1
