# Blender v3.0.0 OBJ File: 'default_objects.blend'
# www.blender.org
mtllib 0001_default_win_0.mtl
o 0001_default_win_0_Cube.034
v -0.732295 0.379433 -0.215514
v -0.215514 0.379433 -0.732295
v -0.137310 0.379433 -0.654091
v -0.137310 1.620567 -0.654091
v -0.654091 0.379433 -0.137310
v -0.654091 1.620567 -0.137310
v -0.215514 1.620567 -0.732295
v -0.732295 1.620567 -0.215514
v -0.699059 1.689276 -0.092342
v -0.699059 0.310724 -0.092342
v -0.798054 1.689276 -0.191337
v -0.798054 0.310724 -0.191337
v -0.092342 1.689276 -0.699059
v -0.092342 0.310724 -0.699059
v -0.191337 1.689276 -0.798054
v -0.191337 0.310724 -0.798054
vt 0.668269 0.292388
vt 0.680074 0.281182
vt 0.680074 0.464528
vt 0.668878 0.453785
vt 0.562191 0.458905
vt 0.550387 0.470111
vt 0.550388 0.286764
vt 0.561582 0.297507
vt 0.650829 0.312741
vt 0.580440 0.315265
vt 0.680918 0.484153
vt 0.551232 0.489736
vt 0.534049 0.470111
vt 0.534050 0.286764
vt 0.579632 0.438552
vt 0.650020 0.436027
vt 0.549543 0.267139
vt 0.679229 0.261557
vt 0.696411 0.464528
vt 0.696411 0.281182
vt 0.757771 0.263469
vt 0.889335 0.263469
vt 0.889335 0.486894
vt 0.757772 0.486894
vn 0.7071 0.0000 0.7071
vn 0.0000 1.0000 0.0000
vn 0.7071 0.0000 -0.7071
vn 0.0000 -1.0000 0.0000
vn -0.7071 0.0000 0.7071
usemtl Backface.009
s off
f 13/1/1 4/2/1 3/3/1 14/4/1
f 10/5/1 5/6/1 6/7/1 9/8/1
f 9/8/1 6/7/1 4/2/1 13/1/1
f 9/8/2 13/1/2 15/9/2 11/10/2
f 14/4/1 3/3/1 5/6/1 10/5/1
f 3/3/2 2/11/2 1/12/2 5/6/2
f 5/6/3 1/13/3 8/14/3 6/7/3
f 14/4/4 10/5/4 12/15/4 16/16/4
f 16/16/3 15/9/3 13/1/3 14/4/3
f 6/7/4 8/17/4 7/18/4 4/2/4
f 2/19/5 3/3/5 4/2/5 7/20/5
f 10/5/5 9/8/5 11/10/5 12/15/5
f 1/21/1 2/22/1 7/23/1 8/24/1
