# Blender v3.0.0 OBJ File: 'default_objects.blend'
# www.blender.org
mtllib 0110_default_w_0.mtl
o 0110_default_w_0_Cube.026
v 0.000000 0.000000 -1.000000
v 0.000000 2.000000 1.000000
v 0.000000 0.000000 1.000000
v 0.000000 2.000000 -1.000000
v -1.000000 0.000000 0.000000
v 1.000000 2.000000 0.000000
v -1.000000 2.000000 0.000000
v 1.000000 0.000000 0.000000
vt 0.058511 0.509536
vt 0.398497 0.509536
vt 0.398497 0.749943
vt 0.058511 0.749943
vt 0.398497 0.750057
vt 0.398497 0.990464
vt 0.058511 0.990464
vt 0.058511 0.750057
vn -0.7071 0.0000 0.7071
vn 0.7071 0.0000 -0.7071
usemtl Backface.009
s off
f 3/1/1 2/2/1 7/3/1 5/4/1
f 4/5/2 6/6/2 8/7/2 1/8/2
