# Blender v3.0.0 OBJ File: 'default_objects.blend'
# www.blender.org
mtllib 0110_default_r_0.mtl
o 0110_default_r_0_Cube.042
v 1.000000 2.000000 1.000000
v -1.000000 2.000000 -1.000000
v 0.000000 0.000000 -1.000000
v 0.000000 0.000000 1.000000
v -1.000000 0.000000 0.000000
v 1.000000 0.000000 0.000000
vt 0.750000 0.897546
vt 0.750000 0.597300
vt 0.975184 0.672362
vt 0.975184 0.822484
vt 0.524816 0.822484
vt 0.524816 0.672362
vn 0.6667 0.3333 -0.6667
vn -0.6667 0.3333 0.6667
usemtl Backface.009
s off
f 2/1/1 1/2/1 6/3/1 3/4/1
f 1/2/2 2/1/2 5/5/2 4/6/2
