# Blender v3.0.0 OBJ File: 'default_objects.blend'
# www.blender.org
mtllib 0110_default_d_0.mtl
o 0110_default_d_0_Cube.015
v -0.927451 0.000000 0.270157
v -0.927451 1.692997 0.270157
v -0.828456 0.000000 0.171162
v -0.828456 1.692997 0.171162
v -0.260514 0.000000 0.937093
v -0.260514 1.692997 0.937093
v -0.161519 0.000000 0.838098
v -0.161519 1.692997 0.838098
v -0.777830 0.000000 0.221787
v -0.777830 1.692997 0.221787
v -0.876825 0.000000 0.320782
v -0.876825 1.692997 0.320782
v -0.212145 1.692997 0.787473
v -0.311140 0.000000 0.886468
v -0.212145 0.000000 0.787473
v -0.311140 1.692997 0.886468
v -0.927451 1.610482 0.270157
v -0.828456 1.610482 0.171162
v -0.161519 1.610482 0.838098
v -0.260514 1.610482 0.937093
v -0.876825 1.610482 0.320782
v -0.311140 1.610482 0.886468
v -0.842144 1.610482 0.286102
v -0.842144 0.000000 0.286102
v -0.276459 0.000000 0.851787
v -0.276459 1.610482 0.851787
v -0.802326 0.773516 0.371152
v -0.802326 0.808073 0.371152
v -0.779805 0.773516 0.348631
v -0.779805 0.808073 0.348631
v -0.777891 0.773516 0.395587
v -0.777891 0.808073 0.395587
v -0.755370 0.773516 0.373066
v -0.755370 0.808073 0.373066
v -0.819210 0.773516 0.388037
v -0.819210 0.808073 0.388037
v -0.794775 0.808073 0.412472
v -0.794775 0.773516 0.412472
v -0.713539 0.807285 0.459940
v -0.720830 0.774303 0.452649
v -0.730423 0.807285 0.476824
v -0.737714 0.774303 0.469533
v -0.681583 0.770787 0.495674
v -0.687242 0.745187 0.490015
v -0.694689 0.770787 0.508780
v -0.700348 0.745187 0.503120
vt 0.571103 0.357379
vt 0.567342 0.359737
vt 0.559835 0.357418
vt 0.563270 0.351479
vt 0.567600 0.427905
vt 0.563841 0.423574
vt 0.570585 0.418837
vt 0.574090 0.420970
vt 0.573665 0.362226
vt 0.568009 0.363947
vt 0.650642 0.481899
vt 0.645292 0.481970
vt 0.645838 0.473160
vt 0.650502 0.471437
vt 0.558785 0.362462
vt 0.561357 0.418088
vt 0.570520 0.415428
vt 0.643709 0.288058
vt 0.650514 0.287561
vt 0.650258 0.299329
vt 0.645696 0.297472
vt 0.575938 0.416541
vt 0.576995 0.362086
vt 0.579268 0.416402
vt 0.658838 0.014564
vt 0.658838 0.232019
vt 0.550819 0.232019
vt 0.550819 0.014564
vt 0.577610 0.414271
vt 0.652174 0.469166
vt 0.652174 0.301661
vt 0.575580 0.364558
vt 0.864300 0.137141
vt 0.860516 0.139656
vt 0.838023 0.117191
vt 0.889187 0.111928
vt 0.863150 0.141817
vt 0.862362 0.142273
vt 0.862296 0.140770
vt 0.863117 0.140502
vt 0.889187 0.164626
vt 0.839692 0.164064
vt 0.861795 0.143660
vt 0.866238 0.142000
vt 0.862109 0.143794
vt 0.862280 0.143409
vt 0.862456 0.142713
vt 0.862976 0.142914
vt 0.861600 0.144031
vt 0.861512 0.144019
vt 0.861706 0.144097
vt 0.861009 0.144834
vn -0.7071 0.0000 -0.7071
vn 0.7071 0.0000 0.7071
vn -0.7071 0.0000 0.7071
vn 0.0000 -1.0000 0.0000
vn 0.0000 1.0000 0.0000
vn 0.0061 1.0000 0.0061
vn -0.3549 -0.8649 -0.3549
vn 0.7071 -0.0000 -0.7071
vn 0.0069 -1.0000 0.0069
vn 0.6749 -0.2984 0.6749
vn -0.6745 -0.0141 0.7382
vn 0.4288 0.7952 0.4288
vn 0.7382 -0.0141 -0.6745
usemtl Backface.009
s off
f 17/1/1 2/2/1 4/3/1 18/4/1
f 19/5/2 8/6/2 6/7/2 20/8/2
f 21/9/3 12/10/3 2/2/3 17/1/3
f 15/11/4 7/12/4 5/13/4 14/14/4
f 10/15/5 4/3/5 2/2/5 12/10/5
f 13/16/5 10/15/5 12/10/5 16/17/5
f 3/18/4 9/19/4 11/20/4 1/21/4
f 22/22/3 16/17/3 12/10/3 21/9/3
f 20/8/3 6/7/3 16/17/3 22/22/3
f 8/6/5 13/16/5 16/17/5 6/7/5
f 5/13/3 20/8/3 22/22/3 14/14/3
f 22/22/4 21/9/4 23/23/4 26/24/4
f 11/20/3 21/9/3 17/1/3 1/21/3
f 7/12/2 19/5/2 20/8/2 5/13/2
f 1/21/1 17/1/1 18/4/1 3/18/1
f 25/25/3 26/26/3 23/27/3 24/28/3
f 14/14/1 22/22/1 26/29/1 25/30/1
f 21/9/2 11/20/2 24/31/2 23/32/2
f 27/33/1 28/34/1 30/35/1 29/36/1
f 38/37/3 37/38/3 36/39/3 35/40/3
f 33/41/2 34/42/2 32/43/2 31/44/2
f 32/43/5 28/34/5 36/39/5 37/38/5
f 29/36/4 33/41/4 31/44/4 27/33/4
f 34/42/5 30/35/5 28/34/5 32/43/5
f 32/43/6 37/38/6 41/45/6 39/46/6
f 28/34/1 27/33/1 35/40/1 36/39/1
f 27/33/4 31/44/4 38/37/4 35/40/4
f 42/47/7 40/48/7 44/49/7 46/50/7
f 37/38/3 38/37/3 42/47/3 41/45/3
f 31/44/8 32/43/8 39/46/8 40/48/8
f 38/37/9 31/44/9 40/48/9 42/47/9
f 44/49/10 43/51/10 45/52/10 46/50/10
f 41/45/11 42/47/11 46/50/11 45/52/11
f 39/46/12 41/45/12 45/52/12 43/51/12
f 40/48/13 39/46/13 43/51/13 44/49/13
