# Blender v3.0.0 OBJ File: 'default_objects.blend'
# www.blender.org
mtllib 0111_default_r_0.mtl
o 0111_default_r_0_Cube.051
v 1.000000 2.000000 -1.000000
v 1.000000 2.000000 1.000000
v -1.000000 2.000000 -1.000000
v 0.000000 0.000000 1.000000
v -1.000000 0.000000 0.000000
vt 0.684978 0.972409
vt 0.539310 0.681072
vt 0.684978 0.535404
vt 0.976315 0.681072
vt 0.976315 0.972409
vn -0.6667 0.3333 0.6667
vn 0.0000 1.0000 0.0000
usemtl Backface.009
s off
f 3/1/1 5/2/1 4/3/1 2/4/1
f 3/1/2 2/4/2 1/5/2
