# Blender 4.1.1
# www.blender.org
o Crossroad.002
v -1.700000 0.200000 3.500000
v -3.000000 0.200000 3.500000
v -3.000000 0.200000 -3.500000
v -1.700000 0.200000 -3.500000
v -1.700000 0.000000 -3.500000
v 1.700000 0.000000 -3.500000
v 1.700000 -0.500000 -3.500000
v 3.000000 -0.500000 -3.500000
v 1.700000 0.200000 -3.500000
v 3.000000 0.200000 -3.500000
v -3.000000 -0.500000 -3.500000
v -1.700000 -0.500000 -3.500000
v -1.700000 0.000000 3.500000
v 1.700000 0.000000 3.500000
v -1.700000 -0.500000 3.500000
v -3.000000 -0.500000 3.500000
v 3.000000 0.200000 3.500000
v 1.700000 0.200000 3.500000
v 3.000000 -0.500000 3.500000
v 1.700000 -0.500000 3.500000
v 0.000000 0.000000 -3.500000
v 0.000000 0.000000 3.500000
v -3.000000 -0.500000 0.000000
v -1.700000 0.200000 0.000000
v -3.000000 0.200000 0.000000
v 3.000000 -0.500000 0.000000
v 1.700000 0.200000 0.000000
v 3.000000 0.200000 0.000000
v 1.700000 0.000000 0.000000
v 1.700000 -0.500000 0.000000
v -1.700000 -0.500000 0.000000
v -1.700000 0.000000 0.000000
v 0.000000 0.000000 0.000000
vn 1.0000 -0.0000 -0.0000
vn -0.0000 -1.0000 -0.0000
vn -0.0000 1.0000 -0.0000
vn -1.0000 -0.0000 -0.0000
vt 0.500486 0.219886
vt 0.048934 0.219886
vt 0.048934 0.194083
vt 0.500486 0.194083
vt 0.747613 0.658394
vt 0.935759 0.658394
vt 0.935759 0.841165
vt 0.747613 0.841165
vt 0.500485 0.015057
vt 0.952037 0.015057
vt 0.952037 0.182777
vt 0.500485 0.182777
vt 0.747613 0.911048
vt 0.935759 0.911048
vt 0.935759 0.948677
vt 0.747613 0.948677
vt 0.559466 0.911048
vt 0.559466 0.841165
vt 0.250457 0.749511
vt 0.250457 0.524838
vt 0.359583 0.524839
vt 0.359583 0.749511
vt 0.747613 0.588511
vt 0.935759 0.588511
vt 0.500486 0.194083
vt 0.500486 0.219886
vt 0.048934 0.219886
vt 0.048934 0.194083
vt 0.559466 0.588511
vt 0.559466 0.550882
vt 0.747613 0.550882
vt 0.500485 0.182777
vt 0.048934 0.182777
vt 0.048934 0.015058
vt 0.500485 0.015058
vt 0.141330 0.749511
vt 0.141330 0.524838
vt 0.141330 0.974184
vt 0.250457 0.974185
vt 0.952037 0.182777
vt 0.952036 0.015058
vt 0.935759 0.550882
vt 0.952037 0.194083
vt 0.952037 0.219886
vt 0.559466 0.658394
vt 0.359583 0.974185
vt 0.559466 0.948677
vt 0.048934 0.015058
vt 0.048934 0.182777
vt 0.952037 0.219886
vt 0.952037 0.194083
s 0
f 24/1/1 1/2/1 13/3/1 32/4/1
f 30/5/2 20/6/2 15/7/2 31/8/2
f 28/9/3 10/10/3 9/11/3 27/12/3
f 23/13/4 16/14/4 2/15/4 25/16/4
f 31/8/2 23/13/2 11/17/2 12/18/2
f 33/19/3 21/20/3 5/21/3 32/22/3
f 26/23/2 19/24/2 20/6/2 30/5/2
f 29/25/4 27/26/4 9/27/4 6/28/4
f 26/23/1 8/29/1 10/30/1 28/31/1
f 24/32/3 4/33/3 3/34/3 25/35/3
f 29/36/3 6/37/3 21/20/3 33/19/3
f 14/38/3 29/36/3 33/19/3 22/39/3
f 1/40/3 24/32/3 25/35/3 2/41/3
f 19/24/1 26/23/1 28/31/1 17/42/1
f 14/43/4 18/44/4 27/26/4 29/25/4
f 8/29/2 26/23/2 30/5/2 7/45/2
f 22/39/3 33/19/3 32/22/3 13/46/3
f 15/7/2 16/14/2 23/13/2 31/8/2
f 11/17/4 23/13/4 25/16/4 3/47/4
f 17/48/3 28/9/3 27/12/3 18/49/3
f 7/45/2 30/5/2 31/8/2 12/18/2
f 4/50/1 24/1/1 32/4/1 5/51/1
