# Blender 4.1.1
# www.blender.org
o Crossroad.003
v -3.500000 -0.500000 -3.000000
v 3.000000 -0.500000 3.000000
v 3.000000 -0.500000 -3.000000
v 1.700000 0.200000 3.000000
v 1.700000 0.200000 -3.000000
v 3.000000 0.200000 3.000000
v 3.000000 0.200000 -3.000000
v -3.500000 -0.500000 -1.700000
v -3.000000 -0.500000 3.000000
v -3.000000 -0.500000 -3.000000
v -1.700000 0.200000 3.000000
v -1.700000 0.200000 -3.000000
v -3.000000 0.200000 3.000000
v -3.000000 0.200000 -3.000000
v 1.700000 0.000000 -1.700000
v 1.700000 0.000000 1.700000
v 3.000000 -0.500000 1.700000
v 3.000000 -0.500000 -1.700000
v 1.700000 0.200000 -1.700000
v 1.700000 0.200000 1.700000
v 3.000000 0.200000 -1.700000
v 3.000000 0.200000 1.700000
v -1.700000 0.000000 -1.700000
v -1.700000 0.000000 1.700000
v -3.000000 -0.500000 1.700000
v -3.000000 -0.500000 -1.700000
v -1.700000 0.200000 -1.700000
v -1.700000 0.200000 1.700000
v -3.000000 0.200000 -1.700000
v -3.000000 0.200000 1.700000
v 3.000000 0.200000 3.500000
v 1.700000 0.200000 3.500000
v -1.700000 -0.500000 -3.000000
v 1.700000 -0.500000 -3.000000
v 1.700000 -0.500000 3.000000
v -1.700000 -0.500000 3.000000
v -1.700000 -0.500000 1.700000
v 1.700000 -0.500000 1.700000
v -1.700000 -0.500000 -1.700000
v 1.700000 -0.500000 -1.700000
v 1.700000 0.000000 3.500000
v -1.699999 0.000000 3.500000
v -1.700000 -0.500000 3.500000
v -3.000000 -0.500000 3.500000
v -1.699999 0.200000 3.500000
v -3.000000 0.200000 3.500000
v 3.000000 -0.500000 3.500000
v 1.700000 -0.500000 3.500000
v -3.500000 0.200000 1.700000
v -3.500000 0.200000 3.000000
v -3.500000 0.200000 -3.000000
v -3.500000 -0.500000 3.000000
v -3.500000 -0.500000 1.700000
v -3.500000 0.200000 -1.700000
v -3.500000 0.000000 -1.700000
v -3.500000 0.000000 1.700000
v -3.000000 -0.000000 1.700000
v -3.000000 -0.000000 -1.700000
v 1.700000 -0.000000 3.000000
v -1.700000 -0.000000 3.000000
v -0.000000 0.000000 -1.700000
v 0.000000 0.000000 1.700000
v -0.000000 0.200000 -1.700000
v -0.000000 0.200000 -3.000000
v -0.000000 -0.500000 -3.000000
v 0.000000 -0.500000 3.000000
v 0.000000 -0.500000 1.700000
v -0.000000 -0.500000 -1.700000
v 0.000000 0.000000 3.500000
v 0.000000 -0.500000 3.500000
v 0.000000 -0.000000 3.000000
v 1.700000 0.000000 -0.000000
v 3.000000 -0.500000 -0.000000
v 1.700000 0.200000 -0.000000
v 3.000000 0.200000 -0.000000
v -1.700000 0.000000 0.000000
v -3.000000 -0.500000 0.000000
v 1.700000 -0.500000 -0.000000
v -1.700000 -0.500000 0.000000
v -3.500000 -0.500000 0.000000
v -3.500000 0.000000 0.000000
v -3.000000 -0.000000 0.000000
v 0.000000 -0.500000 0.000000
v 0.000000 0.000000 0.000000
vn -0.0000 -1.0000 -0.0000
vn -0.0000 1.0000 -0.0000
vn -1.0000 -0.0000 -0.0000
vn -0.0000 -0.0000 1.0000
vn -0.0000 -0.0000 -1.0000
vn 1.0000 -0.0000 -0.0000
vt 0.862079 0.689608
vt 0.870396 0.618968
vt 0.941205 0.627835
vt 0.932312 0.698225
vt 0.281518 0.182618
vt 0.113464 0.182618
vt 0.113464 0.014563
vt 0.281518 0.014563
vt 0.173974 0.360352
vt 0.048827 0.360352
vt 0.048827 0.235205
vt 0.173974 0.235205
vt 0.250467 0.749513
vt 0.250467 0.858460
vt 0.141520 0.858460
vt 0.141520 0.749513
vt 0.488355 0.014563
vt 0.656410 0.014563
vt 0.656410 0.182618
vt 0.488355 0.182618
vt 0.776759 0.607831
vt 0.680772 0.594618
vt 0.686572 0.567070
vt 0.780296 0.580241
vt 0.721047 0.014563
vt 0.721047 0.182618
vt 0.263918 0.194423
vt 0.479006 0.194423
vt 0.479006 0.219727
vt 0.263918 0.219727
vt 0.322266 0.235205
vt 0.322266 0.360352
vt 0.197119 0.360352
vt 0.197119 0.235205
vt 0.501283 0.182618
vt 0.501282 0.014563
vt 0.595491 0.665011
vt 0.590318 0.573757
vt 0.672129 0.669754
vt 0.768595 0.679606
vt 0.560586 0.535382
vt 0.579659 0.516705
vt 0.609003 0.542798
vt 0.263917 0.194422
vt 0.479006 0.194422
vt 0.479006 0.219727
vt 0.263917 0.219727
vt 0.268591 0.014563
vt 0.268591 0.182618
vt 0.113463 0.014565
vt 0.113463 0.182620
vt 0.048827 0.182620
vt 0.048827 0.014565
vt 0.590262 0.975548
vt 0.562091 0.975484
vt 0.562190 0.936057
vt 0.590365 0.936165
vt 0.590866 0.862935
vt 0.562528 0.862649
vt 0.564512 0.665995
vt 0.556952 0.583993
vt 0.756980 0.935957
vt 0.756564 0.865356
vt 0.844703 0.866345
vt 0.845244 0.930476
vt 0.760823 0.773171
vt 0.852427 0.780148
vt 0.663760 0.863884
vt 0.663251 0.936431
vt 0.592677 0.766122
vt 0.666583 0.768197
vt 0.908610 0.872465
vt 0.893104 0.919858
vt 0.920846 0.788475
vt 0.048826 0.182620
vt 0.048826 0.014565
vt 0.113463 0.014565
vt 0.113463 0.182620
vt 0.048827 0.182618
vt 0.048827 0.014563
vt 0.969901 0.703251
vt 0.979210 0.632731
vt 0.758314 0.974721
vt 0.853577 0.968913
vt 0.538408 0.549226
vt 0.359414 0.749513
vt 0.359414 0.640566
vt 0.442726 0.640566
vt 0.442726 0.749513
vt 0.957162 0.794054
vt 0.563741 0.765703
vt 0.663371 0.975548
vt 0.474769 0.749513
vt 0.474769 0.640566
vt 0.944676 0.600619
vt 0.982733 0.605537
vt 0.917084 0.940560
vt 0.941081 0.881266
vt 0.873757 0.591612
vt 0.706746 0.194422
vt 0.643485 0.194422
vt 0.643485 0.219727
vt 0.706746 0.219727
vt 0.441048 0.219727
vt 0.441048 0.194423
vt 0.504309 0.194423
vt 0.504309 0.219727
vt 0.276568 0.194423
vt 0.276568 0.219727
vt 0.250467 0.941772
vt 0.141520 0.941772
vt 0.250467 0.973816
vt 0.141520 0.973816
vt 0.643485 0.219727
vt 0.643485 0.194423
vt 0.706746 0.194423
vt 0.706746 0.219727
vt 0.112089 0.219728
vt 0.048828 0.219728
vt 0.048828 0.194423
vt 0.112089 0.194423
vt 0.359414 0.973816
vt 0.359414 0.941772
vt 0.359414 0.858460
vt 0.048827 0.014563
vt 0.048827 0.182618
vt 0.048829 0.194422
vt 0.048829 0.219727
vt 0.250467 0.640566
vt 0.474769 0.858460
vt 0.442726 0.858460
vt 0.721047 0.182618
vt 0.721047 0.014563
vt 0.048829 0.194423
vt 0.048829 0.219727
vt 0.141520 0.640566
s 0
f 39/1/1 26/2/1 10/3/1 33/4/1
f 20/5/2 4/6/2 6/7/2 22/8/2
f 28/9/2 30/10/2 13/11/2 11/12/2
f 84/13/2 62/14/2 16/15/2 72/16/2
f 12/17/2 14/18/2 29/19/2 27/20/2
f 77/21/1 25/22/1 53/23/1 80/24/1
f 29/19/2 14/18/2 51/25/2 54/26/2
f 72/27/3 16/28/3 20/29/3 74/30/3
f 5/31/2 19/32/2 21/33/2 7/34/2
f 74/35/2 20/5/2 22/8/2 75/36/2
f 36/37/1 9/38/1 25/22/1 37/39/1
f 79/40/1 77/21/1 26/2/1 39/1/1
f 13/41/4 50/42/4 52/43/4 9/38/4
f 61/44/5 23/45/5 27/46/5 63/47/5
f 64/48/2 12/17/2 27/20/2 63/49/2
f 25/22/1 9/38/1 52/43/1 53/23/1
f 13/50/2 30/51/2 49/52/2 50/53/2
f 6/54/6 31/55/6 47/56/6 2/57/6
f 35/58/1 2/57/1 47/56/1 48/59/1
f 9/38/1 36/37/1 43/60/1 44/61/1
f 73/62/1 78/63/1 40/64/1 18/65/1
f 83/66/1 79/40/1 39/1/1 68/67/1
f 2/57/1 35/58/1 38/68/1 17/69/1
f 66/70/1 36/37/1 37/39/1 67/71/1
f 18/65/1 40/64/1 34/72/1 3/73/1
f 68/67/1 39/1/1 33/4/1 65/74/1
f 11/75/2 13/76/2 46/77/2 45/78/2
f 6/7/2 4/6/2 32/79/2 31/80/2
f 12/81/5 33/4/5 10/3/5 14/82/5
f 75/83/6 73/62/6 18/65/6 21/84/6
f 13/41/3 9/38/3 44/61/3 46/85/3
f 76/86/2 23/87/2 58/88/2 82/89/2
f 65/74/5 33/4/5 12/81/5 64/90/5
f 66/70/1 35/58/1 48/59/1 70/91/1
f 22/92/6 6/54/6 2/57/6 17/69/6
f 81/93/2 82/89/2 58/88/2 55/94/2
f 14/82/5 10/3/5 1/95/5 51/96/5
f 7/97/5 3/73/5 34/72/5 5/98/5
f 10/3/1 26/2/1 8/99/1 1/95/1
f 18/65/6 3/73/6 7/97/6 21/84/6
f 55/100/4 58/101/4 29/102/4 54/103/4
f 23/45/4 27/46/4 29/102/4 58/101/4
f 30/104/5 57/105/5 56/106/5 49/107/5
f 24/108/5 57/105/5 30/104/5 28/109/5
f 62/14/2 71/110/2 59/111/2 16/15/2
f 69/112/2 41/113/2 59/111/2 71/110/2
f 4/114/3 59/115/3 41/116/3 32/117/3
f 4/114/3 20/29/3 16/28/3 59/115/3
f 11/118/6 45/119/6 42/120/6 60/121/6
f 11/118/6 60/121/6 24/108/6 28/109/6
f 42/122/2 69/112/2 71/110/2 60/123/2
f 24/124/2 60/123/2 71/110/2 62/14/2
f 36/37/1 66/70/1 70/91/1 43/60/1
f 34/72/5 65/74/5 64/90/5 5/98/5
f 40/64/1 68/67/1 65/74/1 34/72/1
f 35/58/1 66/70/1 67/71/1 38/68/1
f 78/63/1 83/66/1 68/67/1 40/64/1
f 5/125/2 64/48/2 63/49/2 19/126/2
f 15/127/5 61/44/5 63/47/5 19/128/5
f 76/86/2 24/124/2 62/14/2 84/13/2
f 23/87/2 76/86/2 84/13/2 61/129/2
f 38/68/1 67/71/1 83/66/1 78/63/1
f 56/130/2 57/131/2 82/89/2 81/93/2
f 24/124/2 76/86/2 82/89/2 57/131/2
f 22/92/6 17/69/6 73/62/6 75/83/6
f 67/71/1 37/39/1 79/40/1 83/66/1
f 17/69/1 38/68/1 78/63/1 73/62/1
f 37/39/1 25/22/1 77/21/1 79/40/1
f 19/132/2 74/35/2 75/36/2 21/133/2
f 15/134/3 72/27/3 74/30/3 19/135/3
f 26/2/1 77/21/1 80/24/1 8/99/1
f 61/129/2 84/13/2 72/16/2 15/136/2
