# Blender 4.1.1
# www.blender.org
o Crossroad.001
v -3.500000 -0.500000 -3.000000
v 3.000000 -0.500000 3.000000
v 3.000000 -0.500000 -3.000000
v 1.700000 0.200000 3.000000
v 1.700000 0.200000 -3.000000
v 3.000000 0.200000 3.000000
v 3.000000 0.200000 -3.000000
v -3.500000 -0.500000 -1.700000
v -3.000000 -0.500000 3.000000
v -3.000000 -0.500000 -3.000000
v -1.700000 0.200000 3.000000
v -1.700000 0.200000 -3.000000
v -3.000000 0.200000 3.000000
v -3.000000 0.200000 -3.000000
v 1.700000 0.000000 -1.700000
v 1.700000 0.000000 1.700000
v 3.000000 -0.500000 1.700000
v 3.000000 -0.500000 -1.700000
v 1.700000 0.200000 -1.700000
v 1.700000 0.200000 1.700000
v 3.000000 0.200000 -1.700000
v 3.000000 0.200000 1.700000
v -1.700000 0.000000 -1.700000
v -1.700000 0.000000 1.700000
v -3.000000 -0.500000 1.700000
v -3.000000 -0.500000 -1.700000
v -1.700000 0.200000 -1.700000
v -1.700000 0.200000 1.700000
v -3.000000 0.200000 -1.700000
v -3.000000 0.200000 1.700000
v 1.699999 0.200000 -3.500000
v 3.000000 0.200000 -3.500000
v 3.000000 0.200000 3.500000
v 1.700000 0.200000 3.500000
v -1.700000 -0.500000 -3.000000
v 1.700000 -0.500000 -3.000000
v 1.700000 -0.500000 3.000000
v -1.700000 -0.500000 3.000000
v -1.700000 -0.500000 1.700000
v 1.700000 -0.500000 1.700000
v -1.700000 -0.500000 -1.700000
v 1.700000 -0.500000 -1.700000
v 3.500000 -0.500000 -1.700000
v 3.500000 -0.500000 -3.000000
v 3.500000 0.200000 1.700000
v 3.500000 0.200000 3.000000
v 3.500000 0.200000 -3.000000
v 3.500000 -0.500000 3.000000
v 3.500000 -0.500000 1.700000
v 3.500000 0.200000 -1.700000
v 3.500000 0.000000 -1.700000
v 3.500000 0.000000 1.700000
v 1.700000 0.000000 3.500000
v -1.699999 0.000000 3.500000
v -1.700000 -0.500000 3.500000
v -3.000000 -0.500000 3.500000
v -1.699999 0.200000 3.500000
v -3.000000 0.200000 3.500000
v 3.000000 -0.500000 3.500000
v 1.700000 -0.500000 3.500000
v -3.500000 0.200000 1.700000
v -3.500000 0.200000 3.000000
v -3.500000 0.200000 -3.000000
v -3.500000 -0.500000 3.000000
v -3.500000 -0.500000 1.700000
v -3.500000 0.200000 -1.700000
v -3.500000 0.000000 -1.700000
v -3.500000 0.000000 1.700000
v 1.699999 0.000000 -3.500000
v -1.700000 0.000000 -3.500000
v 1.700000 -0.500000 -3.500000
v 3.000000 -0.500000 -3.500000
v -3.000000 0.200000 -3.500000
v -1.700000 0.200000 -3.500000
v -3.000000 -0.500000 -3.500000
v -1.700000 -0.500000 -3.500000
v 1.700000 -0.000000 3.000000
v -1.700000 -0.000000 3.000000
v -3.000000 -0.000000 1.700000
v -3.000000 -0.000000 -1.700000
v -1.700000 -0.000000 -3.000000
v 1.700000 -0.000000 -3.000000
v 3.000000 -0.000000 -1.700000
v 3.000000 -0.000000 1.700000
v -0.000000 0.000000 -1.700000
v 0.000000 0.000000 1.700000
v 0.000000 -0.000000 3.000000
v 0.000000 0.000000 3.500000
v -0.000000 0.000000 -3.500000
v -0.000000 -0.000000 -3.000000
v 1.700000 0.000000 -0.000000
v -1.700000 0.000000 0.000000
v 3.500000 0.000000 -0.000000
v -3.500000 0.000000 0.000000
v -3.000000 -0.000000 0.000000
v 3.000000 -0.000000 -0.000000
v 0.000000 0.000000 0.000000
vn -0.0000 -0.0000 -1.0000
vn -0.0000 -1.0000 -0.0000
vn -0.0000 1.0000 -0.0000
vn -0.0000 -0.0000 1.0000
vn 1.0000 -0.0000 -0.0000
vn -1.0000 -0.0000 -0.0000
vt 0.941085 0.569882
vt 0.913131 0.595608
vt 0.903740 0.569900
vt 0.929248 0.553839
vt 0.841447 0.666495
vt 0.842068 0.601868
vt 0.906394 0.667635
vt 0.174002 0.360748
vt 0.048827 0.360748
vt 0.048827 0.235572
vt 0.174002 0.235572
vt 0.174002 0.360749
vt 0.048826 0.360749
vt 0.048826 0.235573
vt 0.174002 0.235573
vt 0.250459 0.749521
vt 0.250459 0.858649
vt 0.141331 0.858649
vt 0.141331 0.749521
vt 0.048827 0.360748
vt 0.048827 0.235572
vt 0.174003 0.235572
vt 0.174003 0.360748
vt 0.675822 0.598461
vt 0.678370 0.574982
vt 0.840695 0.577260
vt 0.048828 0.182619
vt 0.048828 0.015718
vt 0.113021 0.015718
vt 0.113021 0.182619
vt 0.174002 0.235572
vt 0.174002 0.360748
vt 0.048826 0.360748
vt 0.048826 0.235572
vt 0.475133 0.749521
vt 0.475133 0.858649
vt 0.443037 0.858649
vt 0.443037 0.749521
vt 0.609819 0.662041
vt 0.600241 0.587446
vt 0.673691 0.662063
vt 0.837653 0.899257
vt 0.914541 0.911959
vt 0.899735 0.938350
vt 0.834814 0.922785
vt 0.443492 0.219733
vt 0.277982 0.219733
vt 0.277982 0.194270
vt 0.443492 0.194270
vt 0.048814 0.194270
vt 0.112472 0.194270
vt 0.112472 0.219733
vt 0.048814 0.219733
vt 0.573466 0.558065
vt 0.587747 0.541597
vt 0.613356 0.560841
vt 0.277982 0.194270
vt 0.277982 0.219733
vt 0.359587 0.858649
vt 0.359587 0.942099
vt 0.250459 0.942099
vt 0.359587 0.974196
vt 0.250459 0.974196
vt 0.113020 0.015718
vt 0.113020 0.182619
vt 0.048827 0.182619
vt 0.048827 0.015718
vt 0.571870 0.926660
vt 0.599923 0.901068
vt 0.609198 0.926809
vt 0.583631 0.942750
vt 0.606941 0.829111
vt 0.574008 0.889226
vt 0.584086 0.827313
vt 0.048814 0.219733
vt 0.048814 0.194270
vt 0.112472 0.194270
vt 0.112472 0.219733
vt 0.556330 0.913403
vt 0.671005 0.895097
vt 0.672271 0.919731
vt 0.584408 0.664142
vt 0.573637 0.597853
vt 0.945003 0.940037
vt 0.928912 0.960878
vt 0.903965 0.835389
vt 0.929296 0.669348
vt 0.929566 0.832990
vt 0.671850 0.830472
vt 0.839993 0.835428
vt 0.048827 0.182618
vt 0.048827 0.015717
vt 0.113020 0.015717
vt 0.113020 0.182618
vt 0.113022 0.015718
vt 0.113022 0.182619
vt 0.048829 0.182619
vt 0.048829 0.015718
vt 0.956691 0.583077
vt 0.939113 0.607342
vt 0.941618 0.899766
vt 0.556330 0.570746
vt 0.113021 0.015718
vt 0.113021 0.182619
vt 0.048828 0.182619
vt 0.048828 0.015718
vt 0.048828 0.182619
vt 0.048828 0.015718
vt 0.113021 0.015718
vt 0.113021 0.182619
vt 0.507150 0.194270
vt 0.507150 0.219733
vt 0.443492 0.219733
vt 0.443492 0.194270
vt 0.507150 0.194270
vt 0.507150 0.219733
vt 0.277982 0.219733
vt 0.277982 0.194270
vt 0.961188 0.925909
vt 0.048828 0.182618
vt 0.048828 0.015717
vt 0.113021 0.015717
vt 0.113021 0.182618
vt 0.113021 0.015718
vt 0.113021 0.182619
vt 0.048829 0.182619
vt 0.048829 0.015718
vt 0.359587 0.749521
vt 0.112471 0.194269
vt 0.277982 0.194269
vt 0.277981 0.219732
vt 0.112471 0.219732
vt 0.048813 0.194269
vt 0.048813 0.219732
vt 0.443493 0.194270
vt 0.507150 0.194270
vt 0.507150 0.219733
vt 0.443492 0.219733
vt 0.250459 0.524847
vt 0.250459 0.556943
vt 0.141331 0.556943
vt 0.141331 0.524847
vt 0.250459 0.640393
vt 0.141331 0.640393
vt 0.443492 0.219732
vt 0.443492 0.194269
vt 0.507150 0.194269
vt 0.507150 0.219732
vt 0.112472 0.219733
vt 0.112472 0.194270
vt 0.048814 0.219733
vt 0.048814 0.194270
vt 0.025784 0.749521
vt 0.025784 0.640393
vt 0.057881 0.640393
vt 0.057881 0.749521
vt 0.359587 0.640393
vt 0.359587 0.556943
vt 0.359587 0.524847
vt 0.141331 0.942099
vt 0.141331 0.974196
vt 0.057881 0.858649
vt 0.025784 0.858649
vt 0.443037 0.640393
vt 0.475133 0.640393
s 0
f 14/1/1 10/2/1 1/3/1 63/4/1
f 41/5/2 26/6/2 10/2/2 35/7/2
f 20/8/3 4/9/3 6/10/3 22/11/3
f 28/12/3 30/13/3 13/14/3 11/15/3
f 97/16/3 86/17/3 16/18/3 91/19/3
f 12/20/3 14/21/3 29/22/3 27/23/3
f 26/6/2 25/24/2 65/25/2 8/26/2
f 29/27/3 14/28/3 63/29/3 66/30/3
f 5/31/3 19/32/3 21/33/3 7/34/3
f 94/35/3 68/36/3 79/37/3 95/38/3
f 38/39/2 9/40/2 25/24/2 39/41/2
f 39/41/2 25/24/2 26/6/2 41/5/2
f 18/42/2 3/43/2 44/44/2 43/45/2
f 30/46/1 28/47/1 24/48/1 79/49/1
f 67/50/4 80/51/4 29/52/4 66/53/4
f 13/54/4 62/55/4 64/56/4 9/40/4
f 23/57/4 27/58/4 29/52/4 80/51/4
f 86/17/3 24/59/3 78/60/3 87/61/3
f 87/61/3 78/60/3 54/62/3 88/63/3
f 25/24/2 9/40/2 64/56/2 65/25/2
f 13/64/3 30/65/3 61/66/3 62/67/3
f 6/68/4 2/69/4 48/70/4 46/71/4
f 37/72/2 2/69/2 59/73/2 60/74/2
f 57/75/5 54/76/5 78/77/5 11/78/5
f 6/68/5 33/79/5 59/73/5 2/69/5
f 17/80/2 18/42/2 43/45/2 49/81/2
f 9/40/2 38/39/2 55/82/2 56/83/2
f 3/43/1 7/84/1 47/85/1 44/44/1
f 36/86/2 35/7/2 76/87/2 71/88/2
f 17/80/2 40/89/2 42/90/2 18/42/2
f 40/89/2 39/41/2 41/5/2 42/90/2
f 2/69/2 37/72/2 40/89/2 17/80/2
f 37/72/2 38/39/2 39/41/2 40/89/2
f 18/42/2 42/90/2 36/86/2 3/43/2
f 42/90/2 41/5/2 35/7/2 36/86/2
f 11/91/3 13/92/3 58/93/3 57/94/3
f 6/95/3 4/96/3 34/97/3 33/98/3
f 14/1/6 73/99/6 75/100/6 10/2/6
f 3/43/2 36/86/2 71/88/2 72/101/2
f 35/7/2 10/2/2 75/100/2 76/87/2
f 13/54/6 9/40/6 56/83/6 58/102/6
f 2/69/2 17/80/2 49/81/2 48/70/2
f 7/103/3 21/104/3 50/105/3 47/106/3
f 22/107/3 6/108/3 46/109/3 45/110/3
f 78/77/5 24/48/5 28/47/5 11/78/5
f 53/111/6 34/112/6 4/113/6 77/114/6
f 38/39/2 37/72/2 60/74/2 55/82/2
f 79/49/1 68/115/1 61/116/1 30/46/1
f 10/2/2 26/6/2 8/26/2 1/3/2
f 77/114/6 4/113/6 20/117/6 16/118/6
f 7/84/5 3/43/5 72/101/5 32/119/5
f 5/120/3 7/121/3 32/122/3 31/123/3
f 14/124/3 12/125/3 74/126/3 73/127/3
f 92/128/3 95/38/3 79/37/3 24/59/3
f 82/129/6 15/130/6 19/131/6 5/132/6
f 69/133/6 82/129/6 5/132/6 31/134/6
f 81/135/5 70/136/5 74/137/5 12/138/5
f 12/138/5 27/58/5 23/57/5 81/135/5
f 89/139/3 90/140/3 82/141/3 69/142/3
f 85/143/3 15/144/3 82/141/3 90/140/3
f 21/145/4 19/131/4 15/130/4 83/146/4
f 21/145/4 83/146/4 51/147/4 50/148/4
f 22/149/1 84/150/1 16/118/1 20/117/1
f 22/149/1 45/151/1 52/152/1 84/150/1
f 93/153/3 51/154/3 83/155/3 96/156/3
f 91/19/3 96/156/3 83/155/3 15/144/3
f 23/157/3 85/143/3 90/140/3 81/158/3
f 70/159/3 81/158/3 90/140/3 89/139/3
f 77/160/3 87/61/3 88/63/3 53/161/3
f 16/18/3 86/17/3 87/61/3 77/160/3
f 92/128/3 24/59/3 86/17/3 97/16/3
f 23/157/3 92/128/3 97/16/3 85/143/3
f 16/18/3 84/162/3 96/156/3 91/19/3
f 52/163/3 93/153/3 96/156/3 84/162/3
f 23/157/3 80/164/3 95/38/3 92/128/3
f 67/165/3 94/35/3 95/38/3 80/164/3
f 85/143/3 97/16/3 91/19/3 15/144/3
