# Blender 4.1.1
# www.blender.org
o Crossroad.004
v -3.000000 -0.500000 3.500000
v 3.000000 -0.500000 -3.000000
v -3.000000 -0.500000 -3.000000
v 3.000000 0.200000 -1.700000
v -3.000000 0.200000 -1.700000
v 3.000000 0.200000 -3.000000
v -3.000000 0.200000 -3.000000
v -1.700000 -0.500000 3.500000
v 3.000000 -0.500000 3.000000
v -3.000000 -0.500000 3.000000
v 3.000000 0.200000 1.700000
v -3.000000 0.200000 1.700000
v 3.000000 0.200000 3.000000
v -3.000000 0.200000 3.000000
v -1.700000 0.000000 -1.700000
v 1.700000 0.000000 -1.700000
v 1.700000 -0.500000 -3.000000
v -1.700000 -0.500000 -3.000000
v -1.700000 0.200000 -1.700000
v 1.700000 0.200000 -1.700000
v -1.700000 0.200000 -3.000000
v 1.700000 0.200000 -3.000000
v -1.700000 0.000000 1.700000
v 1.700000 0.000000 1.700000
v 1.700000 -0.500000 3.000000
v -1.700000 -0.500000 3.000000
v -1.700000 0.200000 1.700000
v 1.700000 0.200000 1.700000
v -1.700000 0.200000 3.000000
v 1.700000 0.200000 3.000000
v 3.000000 -0.000000 1.700000
v 1.700000 -0.000000 3.000000
v 3.500000 0.200000 -3.000000
v 3.500000 0.200000 -1.700000
v -3.000000 -0.500000 1.700000
v -3.000000 -0.500000 -1.700000
v 3.000000 -0.500000 -1.700000
v 3.000000 -0.500000 1.700000
v 1.700000 -0.500000 1.700000
v 1.700000 -0.500000 -1.700000
v -1.700000 -0.500000 1.700000
v -1.700000 -0.500000 -1.700000
v -1.700000 -0.500000 -3.500000
v -3.000000 -0.500000 -3.500000
v 1.700000 0.200000 -3.500000
v 3.000000 0.200000 -3.500000
v -1.700000 -0.000000 -3.000000
v -1.700000 -0.000000 3.000000
v -3.000000 0.200000 -3.500000
v 3.000000 -0.500000 -3.500000
v 1.700000 -0.500000 -3.500000
v -1.700000 0.200000 -3.500000
v -1.700000 0.000000 -3.500000
v 1.700000 0.000000 -3.500000
v 1.700000 -0.000000 -3.000000
v 3.500000 0.000000 -1.700000
v 3.500000 0.000000 1.700000
v 3.500000 -0.500000 1.700000
v 3.500000 -0.500000 3.000000
v 3.500000 0.200000 1.700000
v 3.500000 0.200000 3.000000
v 3.500000 -0.500000 -3.000000
v 3.500000 -0.500000 -1.700000
v 1.700000 0.200000 3.500000
v 3.000000 0.200000 3.500000
v 3.000000 -0.000000 -1.700000
v -3.000000 0.200000 3.500000
v 3.000000 -0.500000 3.500000
v 1.700000 -0.500000 3.500000
v -1.700000 0.200000 3.500000
v -1.700000 0.000000 3.500000
v 1.700000 0.000000 3.500000
v -0.000000 0.000000 -1.700000
v 0.000000 0.000000 1.700000
v 0.000000 -0.000000 3.000000
v -0.000000 0.000000 -3.500000
v -0.000000 -0.000000 -3.000000
v 0.000000 0.000000 3.500000
v -1.700000 0.000000 0.000000
v 1.700000 0.000000 -0.000000
v -1.700000 0.200000 0.000000
v -3.000000 0.200000 0.000000
v -3.000000 -0.500000 0.000000
v 3.000000 -0.500000 -0.000000
v 1.700000 -0.500000 -0.000000
v -1.700000 -0.500000 0.000000
v 3.500000 0.000000 -0.000000
v 3.500000 -0.500000 -0.000000
v 3.000000 -0.000000 -0.000000
v 0.000000 0.000000 0.000000
vn -0.0000 -1.0000 -0.0000
vn -0.0000 1.0000 -0.0000
vn 1.0000 -0.0000 -0.0000
vn -1.0000 -0.0000 -0.0000
vn -0.0000 -0.0000 -1.0000
vn -0.0000 -0.0000 1.0000
vt 0.854344 0.667550
vt 0.855991 0.603156
vt 0.920205 0.604716
vt 0.918849 0.668795
vt 0.172948 0.360352
vt 0.048829 0.360352
vt 0.048829 0.236233
vt 0.172948 0.236233
vt 0.172949 0.360352
vt 0.048830 0.360352
vt 0.048830 0.236233
vt 0.172949 0.236233
vt 0.112479 0.194269
vt 0.277971 0.194269
vt 0.277971 0.219729
vt 0.112479 0.219729
vt 0.250469 0.749507
vt 0.142263 0.749507
vt 0.142263 0.641301
vt 0.250469 0.641301
vt 0.048828 0.219729
vt 0.048828 0.194269
vt 0.718735 0.015150
vt 0.886213 0.015150
vt 0.886213 0.182627
vt 0.718735 0.182627
vt 0.685507 0.595425
vt 0.688698 0.570998
vt 0.856808 0.578426
vt 0.950627 0.015150
vt 0.950627 0.182627
vt 0.112477 0.194270
vt 0.112477 0.219730
vt 0.048827 0.219730
vt 0.048827 0.194270
vt 0.280717 0.015150
vt 0.280717 0.182627
vt 0.113240 0.182627
vt 0.113240 0.015150
vt 0.615290 0.661411
vt 0.605956 0.582704
vt 0.682503 0.661776
vt 0.852821 0.902018
vt 0.917584 0.901727
vt 0.917722 0.926590
vt 0.853039 0.927061
vt 0.443461 0.194270
vt 0.443461 0.219730
vt 0.277969 0.219730
vt 0.277969 0.194270
vt 0.494383 0.194269
vt 0.494383 0.219729
vt 0.499726 0.015150
vt 0.499727 0.182627
vt 0.620250 0.554834
vt 0.113113 0.015481
vt 0.113113 0.182297
vt 0.048953 0.182297
vt 0.048953 0.015481
vt 0.613060 0.834748
vt 0.605621 0.910190
vt 0.578444 0.897664
vt 0.589362 0.832672
vt 0.576099 0.937070
vt 0.559769 0.923087
vt 0.680149 0.903742
vt 0.681883 0.929535
vt 0.588514 0.663644
vt 0.577716 0.593379
vt 0.680488 0.836403
vt 0.852638 0.837028
vt 0.681866 0.749764
vt 0.853070 0.752201
vt 0.616252 0.749673
vt 0.917409 0.837128
vt 0.917729 0.752839
vt 0.048954 0.182297
vt 0.048954 0.015481
vt 0.113114 0.015481
vt 0.113114 0.182297
vt 0.113113 0.015480
vt 0.113113 0.182296
vt 0.048953 0.182296
vt 0.048953 0.015480
vt 0.615405 0.937260
vt 0.250469 0.526730
vt 0.250469 0.558556
vt 0.142263 0.558556
vt 0.142263 0.526730
vt 0.048826 0.182627
vt 0.048826 0.015150
vt 0.048953 0.182295
vt 0.048953 0.015480
vt 0.113113 0.015480
vt 0.113113 0.182295
vt 0.578087 0.551275
vt 0.559769 0.564460
vt 0.876286 0.194269
vt 0.876286 0.219729
vt 0.710795 0.219729
vt 0.710795 0.194269
vt 0.112477 0.194270
vt 0.112477 0.219730
vt 0.939937 0.194269
vt 0.939937 0.219729
vt 0.277969 0.194270
vt 0.277969 0.219730
vt 0.591228 0.749695
vt 0.443461 0.194269
vt 0.507111 0.194269
vt 0.507111 0.219730
vt 0.443461 0.219730
vt 0.593445 0.534068
vt 0.952333 0.901577
vt 0.952471 0.926397
vt 0.507111 0.194270
vt 0.507111 0.219730
vt 0.588479 0.954032
vt 0.250469 0.940459
vt 0.250469 0.972284
vt 0.142263 0.972284
vt 0.142263 0.940459
vt 0.920787 0.580101
vt 0.142263 0.857713
vt 0.059517 0.857713
vt 0.059517 0.749507
vt 0.027692 0.749507
vt 0.027692 0.857713
vt 0.048827 0.219730
vt 0.048827 0.194270
vt 0.952361 0.753112
vt 0.953364 0.669371
vt 0.952113 0.837136
vt 0.954648 0.605467
vt 0.250469 0.857713
vt 0.955200 0.580884
vt 0.358675 0.940459
vt 0.358675 0.857713
vt 0.358675 0.558556
vt 0.358675 0.641301
vt 0.358675 0.972284
vt 0.358675 0.526730
vt 0.358675 0.749507
vt 0.027692 0.641301
vt 0.059517 0.641301
s 0
f 41/1/1 26/2/1 10/3/1 35/4/1
f 20/5/2 4/6/2 6/7/2 22/8/2
f 28/9/2 30/10/2 13/11/2 11/12/2
f 48/13/3 23/14/3 27/15/3 29/16/3
f 90/17/2 80/18/2 16/19/2 73/20/2
f 29/16/3 70/21/3 71/22/3 48/13/3
f 12/23/2 14/24/2 29/25/2 27/26/2
f 26/2/1 25/27/1 69/28/1 8/29/1
f 29/25/2 14/24/2 67/30/2 70/31/2
f 55/32/4 22/33/4 45/34/4 54/35/4
f 5/36/2 19/37/2 21/38/2 7/39/2
f 38/40/1 9/41/1 25/27/1 39/42/1
f 39/42/1 25/27/1 26/2/1 41/1/1
f 18/43/1 3/44/1 44/45/1 43/46/1
f 32/47/4 30/48/4 28/49/4 24/50/4
f 79/51/3 81/52/3 27/15/3 23/14/3
f 82/53/2 12/23/2 27/26/2 81/54/2
f 25/27/1 9/41/1 68/55/1 69/28/1
f 13/56/2 30/57/2 64/58/2 65/59/2
f 37/60/1 2/61/1 62/62/1 63/63/1
f 6/64/5 33/65/5 62/62/5 2/61/5
f 17/66/1 18/43/1 43/46/1 51/67/1
f 9/41/1 38/40/1 58/68/1 59/69/1
f 17/66/1 40/70/1 42/71/1 18/43/1
f 85/72/1 39/42/1 41/1/1 86/73/1
f 2/61/1 37/60/1 40/70/1 17/66/1
f 84/74/1 38/40/1 39/42/1 85/72/1
f 18/43/1 42/71/1 36/75/1 3/44/1
f 86/73/1 41/1/1 35/4/1 83/76/1
f 11/77/2 13/78/2 61/79/2 60/80/2
f 6/81/2 4/82/2 34/83/2 33/84/2
f 2/61/1 17/66/1 51/67/1 50/85/1
f 76/86/2 77/87/2 55/88/2 54/89/2
f 7/39/2 21/38/2 52/90/2 49/91/2
f 22/92/2 6/93/2 46/94/2 45/95/2
f 13/96/6 9/41/6 59/69/6 61/97/6
f 47/98/3 21/99/3 19/100/3 15/101/3
f 31/102/5 24/50/5 28/49/5 11/103/5
f 47/98/3 53/104/3 52/105/3 21/99/3
f 22/33/4 55/32/4 16/106/4 20/107/4
f 84/74/1 37/60/1 63/63/1 88/108/1
f 66/109/6 56/110/6 34/111/6 4/112/6
f 13/96/3 65/113/3 68/55/3 9/41/3
f 3/44/4 7/114/4 49/115/4 44/45/4
f 30/48/4 32/47/4 72/116/4 64/117/4
f 66/109/6 4/112/6 20/107/6 16/106/6
f 6/64/3 2/61/3 50/85/3 46/118/3
f 75/119/2 78/120/2 72/121/2 32/122/2
f 10/3/1 26/2/1 8/29/1 1/123/1
f 77/87/2 73/20/2 16/19/2 55/88/2
f 80/18/2 24/124/2 31/125/2 89/126/2
f 87/127/2 89/126/2 31/125/2 57/128/2
f 60/129/5 57/130/5 31/102/5 11/103/5
f 82/131/4 83/76/4 35/4/4 12/132/4
f 7/114/4 3/44/4 36/75/4 5/133/4
f 12/132/4 35/4/4 10/3/4 14/134/4
f 75/119/2 32/122/2 24/124/2 74/135/2
f 14/134/4 10/3/4 1/123/4 67/136/4
f 48/137/2 75/119/2 74/135/2 23/138/2
f 47/139/2 15/140/2 73/20/2 77/87/2
f 48/137/2 71/141/2 78/120/2 75/119/2
f 53/142/2 47/139/2 77/87/2 76/86/2
f 79/143/2 90/17/2 73/20/2 15/140/2
f 23/138/2 74/135/2 90/17/2 79/143/2
f 5/133/4 36/75/4 83/76/4 82/131/4
f 56/144/2 66/145/2 89/126/2 87/127/2
f 16/19/2 80/18/2 89/126/2 66/145/2
f 38/40/1 84/74/1 88/108/1 58/68/1
f 42/71/1 86/73/1 83/76/1 36/75/1
f 37/60/1 84/74/1 85/72/1 40/70/1
f 40/70/1 85/72/1 86/73/1 42/71/1
f 5/36/2 82/53/2 81/54/2 19/37/2
f 15/101/3 19/100/3 81/52/3 79/51/3
f 74/135/2 24/124/2 80/18/2 90/17/2
